<svg width="50" height="46" viewBox="0 0 50 46" fill="none" xmlns="http://www.w3.org/2000/svg">
<path d="M21.4766 41.6563C21.7685 40.9051 21.9076 40.1032 21.8859 39.2975C21.9304 37.0646 22.5272 34.8775 23.6229 32.9315C24.716 30.9888 26.2747 29.3481 28.1589 28.157C28.8566 27.7828 29.4711 27.2709 29.9652 26.6523C30.4594 26.0338 30.8229 25.3214 31.0338 24.5583C31.2447 23.7952 31.2986 22.9972 31.1922 22.2127C31.0858 21.4282 30.8214 20.6734 30.4149 19.994C29.8719 19.0865 29.0904 18.3425 28.1589 17.8475C27.6249 17.477 27.1119 17.078 26.6229 16.6505L25.3974 15.4505C23.1518 13.0898 21.8925 9.96063 21.8769 6.7025C21.9001 5.89665 21.7617 5.09431 21.4698 4.34283C21.1779 3.59134 20.7385 2.90592 20.1774 2.327C19.6189 1.74873 18.9495 1.28892 18.2094 0.975025C17.4692 0.661126 16.6734 0.49957 15.8694 0.500001C15.0659 0.501134 14.2708 0.663407 13.5311 0.977219C12.7914 1.29103 12.1221 1.75001 11.5629 2.327C11.0028 2.90694 10.5641 3.59275 10.2722 4.34431C9.98043 5.09586 9.84144 5.89808 9.8634 6.704C9.87651 7.75016 10.1647 8.77445 10.6989 9.674C11.2313 10.572 11.9914 11.3135 12.9024 11.8235C16.5909 14.1575 19.1574 18.62 19.1574 23.009C19.1483 26.2388 17.913 29.3447 15.7014 31.6985L12.9114 34.1765C12.0009 34.685 11.2404 35.426 10.7064 36.326C10.1709 37.2245 9.8844 38.2505 9.8709 39.2975C9.84796 40.1033 9.9865 40.9056 10.2784 41.657C10.5703 42.4085 11.0096 43.0939 11.5704 43.673C12.1291 44.2511 12.7984 44.7108 13.5385 45.0247C14.2787 45.3386 15.0745 45.5003 15.8784 45.5C16.6822 45.4991 17.4776 45.3369 18.2176 45.0231C18.9575 44.7093 19.627 44.2502 20.1864 43.673C20.7462 43.0932 21.1848 42.4076 21.4766 41.6563Z" fill="black"/>
<path d="M29.6244 10.04C28.9629 9.047 28.6104 7.8785 28.6104 6.6845C28.6114 5.08509 29.245 3.55101 30.3729 2.417C31.3536 1.43036 32.6471 0.815755 34.0314 0.678634C35.4158 0.541513 36.8047 0.890422 37.9599 1.6655C38.9494 2.32986 39.7198 3.27254 40.1739 4.3745C40.628 5.47771 40.7466 6.69038 40.5147 7.86065C40.2828 9.03092 39.7108 10.1068 38.8704 10.9535C38.0325 11.7979 36.962 12.3734 35.7955 12.6067C34.6291 12.8399 33.4196 12.7203 32.3214 12.263C31.2222 11.8053 30.2836 11.0316 29.6244 10.04Z" fill="black"/>
<path d="M31.2819 34.277C32.2704 33.614 33.4329 33.26 34.6209 33.26V33.257C35.4106 33.2579 36.1924 33.4148 36.9213 33.7185C37.6503 34.0223 38.3122 34.4669 38.8689 35.027C39.8528 36.0168 40.4648 37.316 40.6015 38.7049C40.7381 40.0939 40.391 41.4874 39.6189 42.65C38.9598 43.643 38.0206 44.4177 36.9204 44.876C35.8222 45.3333 34.6127 45.4529 33.4463 45.2197C32.2798 44.9864 31.2093 44.4109 30.3714 43.5665C29.5307 42.7197 28.9585 41.6435 28.7266 40.4729C28.4948 39.3024 28.6135 38.0894 29.0679 36.986C29.522 35.8841 30.2925 34.9414 31.2819 34.277Z" fill="black"/>
<path d="M48.9864 19.637C49.6462 20.6296 49.9986 21.7962 49.9989 22.9897C49.9979 24.5895 49.3643 26.124 48.2364 27.2585C47.6795 27.8184 47.0176 28.2629 46.2887 28.5666C45.5598 28.8703 44.7781 29.0273 43.9884 29.0285C42.7991 29.0285 41.6368 28.6745 40.6494 28.0115C39.6599 27.3471 38.8895 26.4045 38.4354 25.3025C37.981 24.1991 37.8623 22.9861 38.0941 21.8155C38.326 20.645 38.8982 19.5689 39.7389 18.722C40.5769 17.8773 41.6477 17.3016 42.8145 17.0683C43.9812 16.8351 45.1911 16.9549 46.2894 17.4125C47.3888 17.8706 48.3275 18.6448 48.9864 19.637Z" fill="black"/>
<path d="M3.17039 17.9705C4.15889 17.3075 5.31989 16.9535 6.50939 16.9535C7.29891 16.9552 8.08035 17.1125 8.80901 17.4165C9.53767 17.7204 10.1992 18.1651 10.7559 18.725C11.7393 19.7145 12.351 21.0131 12.4877 22.4015C12.6243 23.7898 12.2775 25.1828 11.5059 26.345C10.8469 27.3371 9.90826 28.1113 8.80889 28.5695C7.71035 29.0246 6.50139 29.143 5.33541 28.9099C4.16943 28.6767 3.09899 28.1025 2.25989 27.26C1.41945 26.4133 0.847479 25.3374 0.615613 24.1672C0.383747 22.9969 0.502289 21.7842 0.956393 20.681C1.41028 19.5785 2.18072 18.6353 3.17039 17.9705Z" fill="black"/>
</svg>
